<svg width="55" height="55" viewBox="0 0 55 55" fill="none" xmlns="http://www.w3.org/2000/svg">
<path d="M23.5309 48.125C23.9332 48.8217 24.5118 49.4002 25.2085 49.8025C25.9052 50.2047 26.6955 50.4165 27.5001 50.4165C28.3046 50.4165 29.0949 50.2047 29.7916 49.8025C30.4883 49.4002 31.0669 48.8217 31.4692 48.125" stroke="white" stroke-width="2" stroke-linecap="round" stroke-linejoin="round"/>
<path d="M7.47545 35.1221C7.17608 35.4502 6.97851 35.8583 6.90679 36.2966C6.83506 36.735 6.89227 37.1847 7.07145 37.5911C7.25062 37.9976 7.54405 38.3432 7.91604 38.5859C8.28802 38.8286 8.72253 38.958 9.1667 38.9583H45.8334C46.2775 38.9585 46.7121 38.8296 47.0843 38.5873C47.4565 38.3451 47.7503 37.9999 47.93 37.5937C48.1096 37.1875 48.1674 36.7379 48.0963 36.2995C48.0251 35.8611 47.8281 35.4529 47.5292 35.1244C44.4813 31.9825 41.25 28.6436 41.25 18.3333C41.25 14.6866 39.8014 11.1893 37.2228 8.61063C34.6441 6.032 31.1468 4.58334 27.5 4.58334C23.8533 4.58334 20.3559 6.032 17.7773 8.61063C15.1987 11.1893 13.75 14.6866 13.75 18.3333C13.75 28.6436 10.5165 31.9825 7.47545 35.1221Z" stroke="white" stroke-width="2" stroke-linecap="round" stroke-linejoin="round"/>
</svg>
