<svg width="43" height="43" viewBox="0 0 43 43" fill="none" xmlns="http://www.w3.org/2000/svg">
<path d="M25.0834 32.25L32.25 39.4167L39.4167 32.25" stroke="url(#paint0_linear_97_173)" stroke-width="2" stroke-linecap="round" stroke-linejoin="round"/>
<path d="M28.6666 3.58331V10.75" stroke="url(#paint1_linear_97_173)" stroke-width="2" stroke-linecap="round" stroke-linejoin="round"/>
<path d="M32.25 25.0833V39.4166" stroke="url(#paint2_linear_97_173)" stroke-width="2" stroke-linecap="round" stroke-linejoin="round"/>
<path d="M37.625 20.3426V10.75C37.625 9.79966 37.2475 8.88823 36.5755 8.21622C35.9035 7.54422 34.992 7.16669 34.0417 7.16669H8.95833C8.00797 7.16669 7.09654 7.54422 6.42453 8.21622C5.75253 8.88823 5.375 9.79966 5.375 10.75V35.8334C5.375 36.7837 5.75253 37.6951 6.42453 38.3672C7.09654 39.0392 8.00797 39.4167 8.95833 39.4167H22.1145" stroke="url(#paint3_linear_97_173)" stroke-width="2" stroke-linecap="round" stroke-linejoin="round"/>
<path d="M5.375 17.9167H37.625" stroke="url(#paint4_linear_97_173)" stroke-width="2" stroke-linecap="round" stroke-linejoin="round"/>
<path d="M14.3334 3.58331V10.75" stroke="url(#paint5_linear_97_173)" stroke-width="2" stroke-linecap="round" stroke-linejoin="round"/>
<defs>
<linearGradient id="paint0_linear_97_173" x1="41" y1="30.5" x2="22.5" y2="50.5" gradientUnits="userSpaceOnUse">
<stop stop-color="#8A38F5"/>
<stop offset="1" stop-color="white"/>
</linearGradient>
<linearGradient id="paint1_linear_97_173" x1="32.5" y1="1" x2="21" y2="13.5" gradientUnits="userSpaceOnUse">
<stop stop-color="#8A38F5"/>
<stop offset="1" stop-color="white"/>
</linearGradient>
<linearGradient id="paint2_linear_97_173" x1="36.5" y1="20.5" x2="14" y2="47" gradientUnits="userSpaceOnUse">
<stop stop-color="#8A38F5"/>
<stop offset="1" stop-color="white"/>
</linearGradient>
<linearGradient id="paint3_linear_97_173" x1="43.1815" y1="7.12914" x2="-5" y2="56.5" gradientUnits="userSpaceOnUse">
<stop stop-color="#8A38F5"/>
<stop offset="1" stop-color="white"/>
</linearGradient>
<linearGradient id="paint4_linear_97_173" x1="21.5" y1="17.9167" x2="21.5" y2="18.9167" gradientUnits="userSpaceOnUse">
<stop stop-color="#8A38F5"/>
<stop offset="1" stop-color="white"/>
</linearGradient>
<linearGradient id="paint5_linear_97_173" x1="21" y1="0.5" x2="3.89643" y2="16.4885" gradientUnits="userSpaceOnUse">
<stop stop-color="#8A38F5"/>
<stop offset="1" stop-color="white"/>
</linearGradient>
</defs>
</svg>
